<svg data-v-423bf9ae="" xmlns="http://www.w3.org/2000/svg" viewBox="0 0 588 90" class="iconLeft"><!----><!----><!----><g data-v-423bf9ae="" id="576ac451-03f7-494c-9b99-20f5059d3522" fill="#1F1E1A" transform="matrix(5.719733238220215,0,0,5.719733238220215,126.73260498046875,-3.817922353744507)"><path d="M11.66 3.92L8.67 3.92L6.48 11.80L4.30 3.92L1.25 3.92L1.25 13.58L3.18 13.58L3.18 9.11C3.18 8.11 3.18 6.83 3.15 5.82C3.37 6.82 3.72 8.11 4.02 9.09L5.40 13.58L7.50 13.58L8.86 9.10C9.17 8.11 9.52 6.82 9.76 5.81C9.73 6.82 9.73 8.11 9.73 9.11L9.73 13.58L11.66 13.58ZM17.77 13.58L19.66 13.58C19.54 12.75 19.52 12.25 19.52 11.69L19.52 9.28C19.52 8.88 19.50 8.48 19.47 8.13C19.36 6.85 18.58 5.94 16.49 5.94C14.71 5.94 13.36 6.89 13.30 8.57L15.18 8.55C15.23 7.74 15.65 7.29 16.42 7.29C17.18 7.29 17.51 7.67 17.57 8.19C17.60 8.44 17.60 8.67 17.60 8.89L17.60 9.04L17.12 9.04C14.42 9.04 13.02 9.97 13.02 11.61C13.02 13.02 14.13 13.78 15.41 13.78C16.11 13.78 16.74 13.64 17.26 13.29L17.63 12.49ZM16.16 12.42C15.47 12.42 15.02 12.11 15.02 11.45C15.02 10.47 16.06 10.12 17.60 10.23L17.60 10.84C17.60 11.87 16.94 12.42 16.16 12.42ZM28.25 8.02C28.10 6.72 27.19 5.94 25.61 5.94C24.89 5.94 24.35 6.08 23.81 6.45L23.24 7.34L23.24 6.13L21.31 6.13L21.31 13.58L23.24 13.58L23.24 10.18C23.24 8.11 23.98 7.29 24.92 7.29C25.86 7.29 26.29 7.83 26.35 8.61C26.38 8.99 26.38 9.34 26.38 9.65L26.38 13.58L28.31 13.58L28.31 9.38C28.31 8.78 28.29 8.40 28.25 8.02ZM36.88 6.13L34.94 6.13L34.94 9.93C34.94 11.61 34.27 12.40 33.31 12.40C32.41 12.40 31.96 11.91 31.86 11.14C31.82 10.77 31.81 10.36 31.81 10.12L31.81 6.13L29.88 6.13L29.88 10.53C29.88 11.13 29.89 11.51 29.95 11.89C30.11 12.91 31.04 13.78 32.58 13.78C33.29 13.78 33.82 13.64 34.37 13.27L34.94 12.32L34.94 13.58L36.88 13.58ZM45.42 9.70C45.42 7.67 44.21 5.94 41.93 5.94C39.65 5.94 38.15 7.60 38.15 9.88C38.15 12.50 39.73 13.78 41.78 13.78C43.53 13.78 44.93 12.89 45.30 11.16L43.37 11.16C43.25 11.96 42.64 12.42 41.82 12.42C40.92 12.42 40.22 11.93 40.10 10.36L45.39 10.36C45.42 10.11 45.42 9.88 45.42 9.70ZM41.85 7.29C42.77 7.29 43.30 7.92 43.43 9.10L40.15 9.10C40.32 7.87 40.95 7.29 41.85 7.29ZM48.62 3.29L46.69 3.29L46.69 11.19C46.69 11.68 46.69 12.03 46.72 12.36C46.76 13.33 47.36 13.68 48.31 13.68C48.75 13.68 49.13 13.66 49.50 13.62L49.50 12.29C48.85 12.33 48.68 12.21 48.64 11.83C48.62 11.63 48.62 11.44 48.62 11.14ZM60.73 11.14C60.62 10.07 60.26 9.27 59.30 8.90C60.45 8.58 61.19 7.80 61.19 6.55C61.19 4.89 60.06 4.16 58.66 3.99C58.18 3.93 57.82 3.92 57.26 3.92L53.73 3.92L53.73 13.58L55.66 13.58L55.66 9.69L56.78 9.69C57.04 9.69 57.27 9.69 57.54 9.70C58.32 9.76 58.72 10.39 58.84 11.42C58.94 12.33 59.08 12.92 59.32 13.58L61.43 13.58C61.04 13.03 60.86 12.32 60.73 11.14ZM55.66 8.25L55.66 5.43L57.08 5.43C57.43 5.43 57.67 5.45 57.89 5.47C58.65 5.57 59.16 5.91 59.16 6.85C59.16 7.78 58.55 8.16 57.78 8.23C57.57 8.25 57.33 8.25 56.99 8.25ZM63.49 3.36C62.86 3.36 62.43 3.78 62.43 4.38C62.43 5.00 62.86 5.40 63.49 5.40C64.12 5.40 64.55 5.00 64.55 4.38C64.55 3.78 64.12 3.36 63.49 3.36ZM64.46 13.58L64.46 6.13L62.52 6.13L62.52 13.58ZM69.61 5.94C67.13 5.94 65.74 7.59 65.74 9.86C65.74 12.11 67.13 13.78 69.61 13.78C72.09 13.78 73.47 12.11 73.47 9.86C73.47 7.59 72.09 5.94 69.61 5.94ZM69.61 12.42C68.45 12.42 67.75 11.45 67.75 9.86C67.75 8.25 68.45 7.29 69.61 7.29C70.77 7.29 71.47 8.25 71.47 9.86C71.47 11.45 70.77 12.42 69.61 12.42ZM77.39 5.94C75.61 5.94 74.44 6.80 74.44 8.23C74.44 9.52 75.39 10.12 76.78 10.47C78.06 10.79 78.55 11.12 78.55 11.69C78.55 12.24 78.08 12.50 77.46 12.50C76.79 12.50 76.23 12.12 76.08 11.31L74.14 11.31C74.35 12.99 75.63 13.78 77.43 13.78C79.14 13.78 80.50 13.05 80.50 11.55C80.50 10.18 79.60 9.56 78.08 9.17C76.85 8.86 76.38 8.57 76.38 8.01C76.38 7.55 76.69 7.21 77.27 7.21C77.91 7.21 78.29 7.60 78.41 8.29L80.35 8.29C80.18 6.93 79.17 5.94 77.39 5.94Z"></path></g><defs data-v-423bf9ae=""><linearGradient data-v-423bf9ae="" gradientTransform="rotate(25)" id="8ff061e0-8e8c-463f-baae-21bf73afb862" x1="0%" y1="0%" x2="100%" y2="0%"><stop data-v-423bf9ae="" offset="0%" style="stop-color: rgb(9, 120, 166); stop-opacity: 1;"></stop><stop data-v-423bf9ae="" offset="100%" style="stop-color: rgb(251, 148, 71); stop-opacity: 1;"></stop></linearGradient></defs><g data-v-423bf9ae="" id="b2298b37-b1a7-4045-bd98-4fa1a1a70889" transform="matrix(1.2069681882858276,0,0,1.2069681882858276,-2.525411367416382,-14.686860084533691)" stroke="none" fill="url(#8ff061e0-8e8c-463f-baae-21bf73afb862)"><path d="M49.997 87.549l-36.819-28.54C6.609 54.122 2.823 46.657 2.823 38.552c0-14.1 11.472-25.57 25.573-25.57 8.85 0 16.964 4.573 21.601 11.92a25.562 25.562 0 0 1 21.614-11.92c14.098 0 25.566 11.471 25.566 25.57 0 8.111-3.786 15.576-10.388 20.481L49.997 87.549zM28.396 16.981c-11.896 0-21.573 9.676-21.573 21.57 0 6.828 3.198 13.123 8.773 17.271l34.4 26.665 34.375-26.642c5.608-4.167 8.806-10.462 8.806-17.295 0-11.894-9.675-21.57-21.566-21.57a21.57 21.57 0 0 0-19.78 12.983l-1.834 4.216-1.834-4.216c-3.43-7.885-11.189-12.982-19.767-12.982z"></path><path d="M41.217 50.026l-.762 2.175H27.673v-3.558h10.258l2.885-8.241 7.499 16.795 7.892-24.296 6.152 16.631h9.97v3.558H59.881l-3.455-9.343L48.84 67.1z"></path></g><!----></svg>